<svg xmlns="http://www.w3.org/2000/svg" viewBox="0 0 512 512">
  <defs>
    <linearGradient id="grad1" x1="0%" y1="0%" x2="100%" y2="100%">
      <stop offset="0%" style="stop-color:#3b82f6;stop-opacity:1" />
      <stop offset="100%" style="stop-color:#2563eb;stop-opacity:1" />
    </linearGradient>
  </defs>
  <rect x="32" y="32" width="448" height="448" rx="128" ry="128" fill="url(#grad1)" />
  <path d="M256 128c-8.8 0-16 7.2-16 16v144H168c-12.5 0-22.6 10.1-22.6 22.6 0 6 2.4 11.8 6.6 16l88 88c6.2 6.2 16.4 6.2 22.6 0l88-88c4.2-4.2 6.6-10 6.6-16 0-12.5-10.1-22.6-22.6-22.6h-72V144c0-8.8-7.2-16-16-16z" fill="white"/>
  <path d="M160 368h192c8.8 0 16 7.2 16 16s-7.2 16-16 16H160c-8.8 0-16-7.2-16-16s7.2-16 16-16z" fill="white" opacity="0.8"/>
</svg>
